<svg id="Layer_1" data-name="Layer 1" xmlns="http://www.w3.org/2000/svg" viewBox="0 0 1379.03 242.95"><defs><style>.cls-1{font-size:246.78px;font-family:Bouquet;letter-spacing:-0.04em;}.cls-2{letter-spacing:-0.01em;}.cls-3{letter-spacing:0em;}.cls-4{letter-spacing:-0.13em;}.cls-5{letter-spacing:-0.06em;}</style></defs><text class="cls-1" transform="translate(0 212.35)">d<tspan class="cls-2" x="179.66" y="0">a</tspan><tspan class="cls-3" x="376.09" y="0">albe</tspan><tspan class="cls-4" x="1058.43" y="0">a</tspan><tspan class="cls-5" x="1224.76" y="0">t</tspan></text><path d="M44,37V174.14S129,178,143,156s23-57,13-81-19-39-41-42-71,0-71,0Z" transform="translate(0.03 23.24)"/><path d="M276,49s-51,81-34,85,76.24,0,76.24,0Z" transform="translate(0.03 23.24)"/><path d="M209.81,189.61H346.45L339,151l-27.85-15.22S230,138,230,140s-12,34.4-12,34.4Z" transform="translate(0.03 23.24)"/><path d="M467,63c0,1-32,49-25,55s23,14,27,16,39-9,39-10,5-21,4-24-23-30-23-30Z" transform="translate(0.03 23.24)"/><path d="M405.61,189.6H542.88S538,174,537,173s-16-19-16-19l-35-7-62,5Z" transform="translate(0.03 23.24)"/><path d="M767,109s-14,68,9,66,83-23,83-23l1-23s-16-21-23-21S767,109,767,109Z" transform="translate(0.03 23.24)"/><path d="M765,42s-2,39,9,43,47,6,51,3,8-10,10-15,8-14,3-19-11-16-20-16-38.67-1-39.84,0S765,42,765,42Z" transform="translate(0.03 23.24)"/><path d="M1150.93,63.5C1149,65,1120,103,1123,118s30,16,32,16,28-12,28-12,8-19,6-20-15-32-20-33S1150.93,63.5,1150.93,63.5Z" transform="translate(0.03 23.24)"/><path d="M1088.58,189.61H1227L1210,155l-18-6h-59l-22,2s-8,7-8,8S1088.58,189.61,1088.58,189.61Z" transform="translate(0.03 23.24)"/></svg>